<svg width="52" height="45" viewBox="0 0 52 45" fill="none" xmlns="http://www.w3.org/2000/svg">
<path d="M38.0535 17.6542C35.3563 20.6751 31.7657 21.0173 30.8901 20.5549C25.2663 17.5851 27.8883 8.89429 29.1244 6.55667C30.3605 4.21905 34.5208 0.35465 38.7309 3.18268C42.941 6.01071 41.425 13.878 38.0535 17.6542Z" fill="#FF763B"/>
<path d="M12.528 33.8645C14.8828 31.6524 16.9581 28.4234 17.7014 27.0855C22.3396 17.6306 28.7618 21.2877 30.7241 25.1232C32.6865 28.9586 36.0759 32.6157 37.8599 33.8645C39.6438 35.1132 42.5873 38.5027 41.5169 41.2678C40.4466 44.0329 37.5923 44.9249 31.8837 42.7841C26.1751 40.6434 22.964 41.8922 20.2881 42.7841C17.6122 43.6761 11.3684 45.906 9.13847 42.7841C6.90855 39.6623 9.58446 36.6296 12.528 33.8645Z" fill="#FF763B"/>
<path d="M5.359 30.6409C8.34315 32.8305 11.5927 32.4327 12.2779 31.8442C16.6786 28.0647 12.6468 20.7555 11.0919 18.8939C9.53693 17.0323 5.09025 14.371 1.91466 17.7449C-1.26094 21.1189 1.62881 27.904 5.359 30.6409Z" fill="#FF763B"/>
<path d="M45.3253 30.7574C42.232 32.6733 39.0489 32.0554 38.4113 31.4347C34.3166 27.448 38.7857 20.6306 40.4455 18.9318C42.1053 17.233 46.6745 14.9627 49.5863 18.468C52.4981 21.9732 49.1919 28.3626 45.3253 30.7574Z" fill="#FF763B"/>
<path d="M23.4536 14.7274C22.5029 18.4526 19.6324 20.2791 18.6942 20.2598C12.6691 20.1356 11.0834 11.6151 11.1033 9.09638C11.1233 6.57762 12.9366 1.50874 17.711 2.11659C22.4853 2.72445 24.6419 10.0709 23.4536 14.7274Z" fill="#FF763B"/>
</svg>
